# xmcd
#
# Track frame offsets:
#	150
#	23737
#	30497
#	41832
#	55677
#	69017
#	86622
#	100035
#	113897
#	129950
#	146402
#	163375
#	178590
#	195540
#	208537
#	223137
#	231525
#	247047
#	264622
#	279635
#	289855
#	305032
#	321502
#
# Disc length: 4467 seconds
#
# Revision: 2
# Processed by: cddbd v1.4PL0 Copyright (c) Steve Scherf et al.
# Submitted via: MusicWizard 6.0.2
#
DISCID=5c117117
DTITLE=Frank Sinatra - The Complete Reprise Studio Recordings  Disc 7
DYEAR=1900
DGENRE=Vocal
TTITLE0=Luck Be A Lady
TTITLE1=Fugue For Tinhorns
TTITLE2=The Oldest Established (Permanent Floating Crap Game In New York)
TTITLE3=Here's To The Losers
TTITLE4=Love Isn't Just For The Young
TTITLE5=Have Yourself A Merry Little Cristimas
TTITLE6=Talk To Me Baby
TTITLE7=Stay With Me (Main Theme From The Cardinal)
TTITLE8=Early American
TTITLE9=The House I Live In
TTITLE10=You Are A Lucky Fellow, Mr. Smith
TTITLE11=The Way You Look Tonight
TTITLE12=Three Coins In The Fountain
TTITLE13=Swinging On A Star
TTITLE14=The Continental
TTITLE15=In The Cool, Cool, Cool Of The Evening
TTITLE16=It Might As Well Be Spring
TTITLE17=Secret Love
TTITLE18=Moon River
TTITLE19=Days Of Wine And Roses
TTITLE20=Love Is A Many-Splendored Thing
TTITLE21=Let Us Break Bread Together
TTITLE22=You Never Had It So Good
EXTD=
EXTT0=
EXTT1=
EXTT2=
EXTT3=
EXTT4=
EXTT5=
EXTT6=
EXTT7=
EXTT8=
EXTT9=
EXTT10=
EXTT11=
EXTT12=
EXTT13=
EXTT14=
EXTT15=
EXTT16=
EXTT17=
EXTT18=
EXTT19=
EXTT20=
EXTT21=
EXTT22=
PLAYORDER=
